<?xml version="1.0" encoding="utf-8"?>
<!-- Generator: Adobe Illustrator 19.0.0, SVG Export Plug-In . SVG Version: 6.00 Build 0)  -->
<svg version="1.1" id="layer" xmlns="http://www.w3.org/2000/svg" xmlns:xlink="http://www.w3.org/1999/xlink" x="0px" y="0px"
	 viewBox="-153 -46 652 652" style="enable-background:new -153 -46 652 652;" xml:space="preserve">
<style type="text/css">
	.st0{fill:#FF8300;}
	.st1{fill:#54585B;}
</style>
<g id="XMLID_897_">
	<path id="XMLID_932_" class="st0" d="M-106.9,266.5H-96l-13.1,29.8h-9.9l-13.1-29.8h11.1l7.1,17.5L-106.9,266.5z M-83.3,257.7
		c0,3-2.5,5.6-5.6,5.6s-5.5-2.6-5.5-5.6s2.5-5.5,5.5-5.5S-83.3,254.7-83.3,257.7z M-94.2,266.5h10.6v30h-10.6V266.5z M-56.6,266.5
		h10.9l-13.1,30h-9.9l-13.1-30h10.9l7.1,17.5L-56.6,266.5z M-33.2,257.7c0,3-2.5,5.6-5.6,5.6c-3.2,0-5.5-2.6-5.5-5.6
		s2.5-5.5,5.6-5.5S-33.2,254.7-33.2,257.7z M-43.9,266.5h10.6v30h-10.6V266.5z M3.9,277.7v18.7H-6.7v-16.2c0-2.8-1.6-5.6-5.3-5.6
		c-2.6,0-5.6,1.4-5.6,6.5v15.4h-10.6v-30h10.6v3.9h0.2c2.3-3,6.5-4.6,10.2-4.6C-0.2,265.8,3.9,271.1,3.9,277.7z M22.1,266.5h5.3v8.8
		h-5.3v21.2H11.5v-21.4H6.4v-8.8h5.1V257h10.6V266.5z M38.5,291.1c0,3.2-2.5,5.5-5.5,5.5s-5.5-2.5-5.5-5.5s2.5-5.5,5.5-5.5
		C36,285.4,38.5,287.9,38.5,291.1z"/>
	<path id="XMLID_930_" class="st0" d="M64.9,269.4c-0.4-2.3-2.3-5.8-7.4-5.8c-3.9,0-6.5,2.6-6.5,5.5c0,2.5,1.4,4.2,4.4,4.8l5.5,1.1
		c6.7,1.4,10.2,5.5,10.2,10.9c0,5.8-4.8,11.5-13.4,11.5c-9.5,0-13.9-6.2-14.6-11.6l6-1.8c0.4,3.9,3.2,7.6,8.6,7.6
		c4.6,0,6.9-2.3,6.9-5.3c0-2.5-1.8-4.4-5.1-5.1l-5.3-1.1c-5.8-1.2-9.5-4.9-9.5-10.6c0-6.4,5.8-11.5,12.9-11.5
		c8.8,0,12.4,5.3,13.2,9.7L64.9,269.4z"/>
	<path id="XMLID_928_" class="st0" d="M74.1,296.4v-25.9h5.8v3.4c1.4-2.6,4.8-4.1,7.6-4.1c3.4,0,6.4,1.6,7.8,4.6
		c2.1-3.4,4.9-4.6,8.5-4.6c4.8,0,9.2,3,9.2,9.9v16.8h-6v-15.9c0-3-1.6-5.3-4.9-5.3c-3.2,0-5.3,2.5-5.3,5.8v15.4h-6v-15.9
		c0-3-1.4-5.3-4.9-5.3c-3.4,0-5.3,2.5-5.3,5.8v15.4H74.1z"/>
	<path id="XMLID_925_" class="st0" d="M129.4,297.1c-7.6,0-12.5-6-12.5-13.8c0-7.6,4.9-13.6,12.4-13.6c4.6,0,6.9,2.5,7.6,4.2v-3.4h6
		v21.2c0,2.1,0.2,4.2,0.4,4.8h-5.8c-0.2-0.5-0.4-1.9-0.4-3.7C135.7,295.1,133.1,297.1,129.4,297.1z M130.1,291.8
		c4.1,0,6.9-3.5,6.9-8.5c0-5.1-2.8-8.1-6.9-8.1c-4.2,0-7.1,3.2-7.1,8.1C123,288.3,125.6,291.8,130.1,291.8z"/>
	<path id="XMLID_923_" class="st0" d="M164.1,276.6c-0.7-0.2-1.4-0.2-1.9-0.2c-4.8,0-7.1,2.6-7.1,7.6v12.4h-6.2v-25.9h6v4.2
		c1.2-2.8,4.1-4.4,7.6-4.4c0.9,0,1.4,0.2,1.6,0.2L164.1,276.6L164.1,276.6z"/>
	<path id="XMLID_921_" class="st0" d="M176.3,270.4h5.3v5.5h-5.3v12c0,2.3,1.1,3.2,3.4,3.2c0.9,0,1.9-0.2,2.1-0.2v5.1
		c-0.4,0.2-1.4,0.5-3.7,0.5c-4.8,0-7.8-2.8-7.8-7.8v-13.1h-4.8v-5.5h1.4c2.8,0,4.1-1.8,4.1-4.1v-3.7h5.6v7.9H176.3z"/>
	<path id="XMLID_919_" class="st0" d="M210.7,296.4v-16.1h-17.6v16.1h-6.4v-37.8h6.4v15.5h17.6v-15.5h6.5v37.8H210.7z"/>
	<path id="XMLID_916_" class="st0" d="M248.5,283.5c0,7.9-5.6,13.8-13.4,13.8c-7.8,0-13.4-5.8-13.4-13.8c0-7.9,5.6-13.8,13.4-13.8
		C242.8,269.7,248.5,275.5,248.5,283.5z M242.3,283.5c0-5.3-3.4-8.1-7.2-8.1c-3.7,0-7.2,2.8-7.2,8.1c0,5.3,3.5,8.3,7.2,8.3
		C238.9,291.6,242.3,288.8,242.3,283.5z"/>
	<path id="XMLID_914_" class="st0" d="M252.7,296.4v-25.9h5.8v3.4c1.4-2.6,4.8-4.1,7.6-4.1c3.4,0,6.4,1.6,7.8,4.6
		c2.1-3.4,4.9-4.6,8.5-4.6c4.8,0,9.2,3,9.2,9.9v16.8h-6v-15.9c0-3-1.6-5.3-4.9-5.3c-3.2,0-5.3,2.5-5.3,5.8v15.4h-6v-15.9
		c0-3-1.4-5.3-4.9-5.3c-3.4,0-5.3,2.5-5.3,5.8v15.4H252.7z"/>
	<path id="XMLID_911_" class="st0" d="M320.1,289c-1.4,4.6-5.5,8.1-11.6,8.1c-7.1,0-13.2-5.1-13.2-13.9c0-8.1,6-13.6,12.7-13.6
		c7.9,0,12.7,5.3,12.7,13.4c0,1.1-0.2,1.8-0.2,1.9h-18.9c0.2,3.9,3.4,6.7,7.1,6.7c3.7,0,5.6-1.9,6.5-4.6L320.1,289z M314.3,280.7
		c-0.2-3-2.1-5.8-6.4-5.8c-3.7,0-6.2,3-6.4,5.8H314.3z"/>
	<path id="XMLID_908_" class="st1" d="M350.5,288.8h-14.6l-2.6,7.6h-8.8l14.3-37.8h9.7l14.1,37.8h-9.2L350.5,288.8z M338.6,281h9.2
		l-4.6-13.1L338.6,281z"/>
	<path id="XMLID_906_" class="st1" d="M381.4,278c-0.9-0.2-1.8-0.4-2.5-0.4c-3.2,0-6.2,1.9-6.2,7.2v11.5h-8.1v-26.5h7.8v3.5
		c1.4-3,4.8-3.9,6.9-3.9c0.9,0,1.6,0.2,2.1,0.4V278z"/>
	<path id="XMLID_903_" class="st1" d="M408.2,288.8c-1.2,4.6-5.5,8.5-12.2,8.5c-7.2,0-13.8-5.3-13.8-14.1c0-8.5,6.4-13.9,13.2-13.9
		c8.3,0,13.2,4.9,13.2,13.6c0,1.1-0.2,2.3-0.2,2.5h-18.4c0.2,3,2.8,5.1,6,5.1c3,0,4.6-1.4,5.3-3.5L408.2,288.8z M400.8,280
		c-0.2-1.9-1.4-4.4-5.3-4.4c-3.4,0-5.1,2.5-5.3,4.4H400.8z"/>
	<path id="XMLID_901_" class="st1" d="M420,296.4h-8.1v-26.5h7.8v3c1.4-2.5,4.8-3.7,7.4-3.7c6.7,0,9.7,4.8,9.7,10.6v16.6h-8.1v-15.2
		c0-2.6-1.4-4.6-4.2-4.6c-2.6,0-4.4,1.9-4.4,4.6V296.4z"/>
	<path id="XMLID_898_" class="st1" d="M460.1,293c-1.2,2.5-3.7,4.2-7.1,4.2c-7.8,0-13.2-5.8-13.2-14.1c0-7.9,4.9-13.9,12.9-13.9
		c4.8,0,6.9,2.6,7.4,3.9v-3.2h7.8v21.7c0,2.5,0.2,4.2,0.2,4.8h-7.8c-0.2-0.5-0.2-1.9-0.2-3.2V293z M454.1,290.2c3.2,0,6-2.5,6-7.1
		s-2.6-7.1-6-7.1c-3.5,0-6,2.3-6,7.1C448.1,287.5,450.7,290.2,454.1,290.2z"/>
</g>
</svg>
